PathFileType	4	(X/Y/Z)	D:\TRACE\v60_Jaco2_6-2-23\BothDRS_Motion1_2-v60.trc
DataRate	CameraRate	NumFrames	NumMarkers	Units	OrigDataRate	OrigDataStartFrame	OrigNumFrames
100.00	100.00	      20	9	mm	100.00	872	      6970
Frame#	Time	front left toe			Front right toe			aft left toe			aft right toe			Arm			FL body			FR body			AL Body			AR Body			
		X1	Y1	Z1	X2	Y2	Z2	X3	Y3	Z3	X4	Y4	Z4	X5	Y5	Z5	X6	Y6	Z6	X7	Y7	Z7	X8	Y8	Z8	X9	Y9	Z9	

872	8.710	-337.32623	143.20572	-255.23262	45.24472	22.95529	-229.32440	-376.39584	4.34293	370.08344	3.21169	120.27083	391.26901	-140.92349	1218.70166	-391.08936	-214.23073	586.49390	-381.02258	-54.74579	591.59918	-371.21048	-271.43311	543.81866	564.36908	-115.50133	541.42749	572.84076	
873	8.720	-338.02795	136.35605	-258.13110	46.08491	22.88471	-229.60426	-375.29739	4.04021	370.03214	1.58458	113.34523	388.33368	-140.65903	1218.57690	-392.69470	-213.65891	586.12201	-381.93875	-54.22730	591.25153	-372.27515	-271.22626	544.08368	563.08850	-115.30788	541.91760	571.91492	
874	8.730	-338.60068	128.67450	-261.43262	47.16331	22.76053	-229.54036	-373.47803	3.75408	369.13409	-0.05853	105.46087	385.36957	-140.36534	1218.43701	-394.09042	-212.92828	585.64966	-382.91208	-53.65505	590.93359	-372.92062	-270.21243	544.51471	562.29346	-115.13289	542.28906	571.07080	
875	8.740	-339.94272	120.32631	-264.78217	47.89973	22.62197	-229.58311	-368.25436	-0.77704	368.40546	-1.34954	96.47078	382.11920	-140.34985	1218.58032	-395.35150	-212.89767	585.66809	-384.23886	-53.02991	590.68646	-373.96848	-271.18121	544.92389	561.10406	-114.78385	542.60266	570.02356	
876	8.750	-341.18497	111.04830	-268.16928	48.88801	22.33643	-229.74754	-372.73849	4.78645	369.38254	-2.28437	86.28677	378.96350	-139.42856	1218.26587	-396.81754	-212.53952	585.50641	-385.35364	-52.49994	590.28033	-374.72015	-270.78940	545.22437	560.73187	-114.61526	542.72351	569.07062	
877	8.760	-342.63718	101.24734	-271.57083	50.09753	22.20224	-229.89728	-372.14801	4.83076	369.19440	-3.59315	75.55347	375.91312	-138.30444	1218.10852	-398.30609	-211.05298	584.96899	-385.98654	-51.55008	589.81299	-375.65805	-270.54312	545.27032	558.95660	-114.36654	542.73608	568.36737	
878	8.770	-343.31619	91.76278	-274.32343	51.03024	22.09688	-229.96632	-371.38083	4.95424	369.08493	-4.92458	64.56409	373.39896	-137.71210	1217.47168	-399.84531	-210.48103	584.49835	-386.89398	-50.91631	589.51550	-376.79199	-270.20010	545.42871	558.68939	-114.01859	542.70776	567.09167	
879	8.780	-344.41873	82.78903	-276.30240	51.77512	21.90450	-230.06203	-370.10355	5.03131	368.87921	-6.19667	54.84309	371.32159	-136.53123	1217.13513	-401.14383	-210.40778	584.69672	-388.22256	-50.70877	589.39154	-377.69504	-269.78992	545.17432	556.99036	-113.75511	542.63849	566.26904	
880	8.790	-344.58795	73.83405	-277.97220	52.63903	21.75773	-230.35355	-369.41742	5.39116	368.68185	-7.42943	45.28369	369.72461	-135.64334	1217.16882	-402.49533	-210.08012	584.73456	-389.39288	-49.98716	589.09656	-379.00903	-269.74698	545.41754	556.42841	-113.73499	542.43781	565.17725	
881	8.800	-344.78329	65.33086	-278.77655	53.80098	21.73005	-230.50410	-368.77179	5.43238	368.59033	-8.64155	36.17105	368.57837	-134.41736	1217.03992	-403.86075	-208.86139	584.46252	-390.14749	-49.59919	588.98553	-379.84680	-268.85468	545.04144	555.14307	-113.37051	542.36316	564.06281	
882	8.810	-344.42484	56.75566	-279.57114	54.60592	21.42271	-230.67381	-367.17105	5.50768	368.50729	-8.72689	28.19440	367.98499	-133.28703	1217.11584	-404.70319	-208.17323	584.63708	-391.18610	-48.91539	588.92786	-381.01361	-269.51474	545.15973	553.60931	-113.09480	542.12384	562.91882	
883	8.820	-343.90546	49.59738	-279.68216	55.42371	21.23152	-230.84120	-366.69110	5.48999	368.44412	-7.99043	20.95285	367.54022	-131.64008	1217.35132	-405.19345	-208.46674	584.80585	-392.76965	-48.72517	588.66498	-381.85403	-269.01660	545.25751	552.97705	-112.67792	542.01935	561.82007	
884	8.830	-343.64243	42.94775	-279.75690	56.41540	21.27620	-230.88509	-365.95230	5.65275	368.31934	-7.50918	14.95614	367.02271	-130.30064	1217.53564	-405.89053	-207.00128	584.40253	-393.48096	-47.86829	588.55670	-383.29767	-269.05789	545.01849	551.24268	-112.54787	541.74915	560.62335	
885	8.840	-343.15158	36.91560	-280.49103	57.40721	21.26600	-231.02118	-364.62744	5.42666	368.15585	-6.95630	11.02425	365.45981	-128.58174	1217.69006	-406.42740	-206.64305	584.53314	-394.81851	-47.69777	588.51294	-384.06586	-269.04095	544.83063	549.80658	-112.59647	541.56116	559.44208	
886	8.850	-343.03333	30.93006	-281.83658	58.19798	21.21713	-231.07024	-363.94550	6.06511	368.04150	-5.08849	10.82854	363.74240	-127.45954	1218.03406	-407.29443	-206.68980	584.97046	-396.55914	-46.78560	588.58972	-385.44995	-268.89417	545.42181	549.25543	-112.57002	541.91522	558.03430	
887	8.860	-342.31503	28.47941	-283.82272	59.12902	21.08148	-231.06847	-363.20294	6.32026	367.86258	-3.49090	10.54764	364.54623	-126.03941	1218.42749	-408.28564	-206.30058	584.72845	-397.71521	-46.20956	588.15417	-386.49588	-269.24731	546.48950	547.33514	-112.94946	543.27063	556.82825	
888	8.870	-341.99179	26.63066	-284.34705	59.99372	21.06349	-231.31134	-360.27887	6.02704	367.50165	-2.85147	11.75227	363.98608	-125.45350	1218.61951	-409.93494	-204.49171	584.45856	-398.52753	-45.16944	588.31024	-387.55170	-269.29388	548.07880	546.31494	-112.79917	544.78339	555.81763	
889	8.880	-341.58038	26.20194	-284.14615	60.75999	21.70187	-231.75183	-359.83194	6.37334	367.34702	-2.96084	12.29156	364.75397	-124.72826	1218.86133	-412.60004	-204.12668	585.80682	-399.92764	-44.60457	588.88690	-388.50482	-269.43427	549.62872	546.08136	-112.68732	545.46118	554.84210	
890	8.890	-340.51965	25.11779	-284.73969	59.78036	24.45281	-231.49326	-358.40280	9.61587	366.77872	-2.61873	11.18287	364.59985	-123.83945	1218.85889	-415.99670	-203.27718	587.25800	-401.02322	-43.47306	590.22589	-389.38681	-269.24518	548.93042	544.16766	-112.58491	545.43439	554.11322	
891	8.900	-339.40524	25.26675	-284.50476	56.80598	28.12974	-228.65862	-355.72141	12.94154	368.77100	-0.54319	11.20547	364.05945	-122.65793	1218.47644	-418.58011	-201.81898	588.13916	-401.47552	-43.16019	591.77325	-389.98489	-269.14713	548.73962	543.33691	-112.74655	545.16943	552.93335	
